<?xml version="1.0" encoding="UTF-8"?>
<svg id="Calque_1" xmlns="http://www.w3.org/2000/svg" xmlns:xlink="http://www.w3.org/1999/xlink" version="1.1" viewBox="0 0 800 800">
  <!-- Generator: Adobe Illustrator 29.7.1, SVG Export Plug-In . SVG Version: 2.1.1 Build 8)  -->
  <defs>
    <style>
      .st0 {
        fill: #cf348c;
      }

      .st1 {
        fill: url(#Dégradé_sans_nom_49);
      }
    </style>
    <linearGradient id="Dégradé_sans_nom_49" data-name="Dégradé sans nom 49" x1="629.901" y1="277.334" x2="443.041" y2="952.059" gradientTransform="translate(-123.894 -204.564)" gradientUnits="userSpaceOnUse">
      <stop offset=".365" stop-color="#ff9200"/>
      <stop offset=".477" stop-color="#ea693c"/>
      <stop offset=".594" stop-color="#d64375"/>
      <stop offset=".651" stop-color="#cf348c"/>
    </linearGradient>
  </defs>
  <g>
    <path class="st0" d="M625.315,612.386c-16.344,19.968-34.404,37.987-54.161,53.398-79.937,63.361-209.266,92.804-297.852,33.684-45.597-30.144-77.097-80.849-82.312-135.285-.763-6.614-.848-13.588-.996-20.244.021-33.556,15.199-66.307,40.658-88.226.721-.636,1.463-1.272,2.204-1.887.191-.148.382-.318.572-.466,21.876-18.039,50.642-28.045,79.111-27.027,22.809,1.039,44.558,13.524,58.061,31.945.89,1.229,1.759,2.501,2.586,3.773.933,1.547,2.756,4.727,3.71,6.232.763,1.632,2.268,5.003,3.095,6.593,1.145,3.349,2.692,7.038,3.391,10.493.954,3.37,1.696,7.567,2.141,11.023,2.183,13.8-1.505,28.32-9.857,39.555-6.55,9.179-16.174,16.216-26.752,20.18-15.029,5.702-31.436,5.321-45.109-5.363-8.946-6.847-15.644-17.594-17.912-30.228-.085-.572-1.06-5.024-1.06-5.024,0,0-.254,1.081-.488,2.226-.021.021-.021.042-.021.064-.127,1.484-.191,2.989-.191,4.515,0,35.485,34.595,64.272,77.33,64.441.445,0,.911-.021,1.356-.021h.127c1.335-.042,2.671-.085,4.006-.127,44.897-1.781,83.605-17.7,116.144-47.759,34.574-31.924,51.871-70.61,51.871-116.016,0-32.73-10.832-61.898-32.475-87.526-21.664-25.607-57.298-50.811-106.922-75.634-42.247-21.113-69.699-37.499-82.375-49.116-22.703-20.583-38.008-48.013-34.044-81.57,7.779-65.968,76.355-73.048,102.598-68.278,67.155,12.21,90.494,70.928,90.494,70.928l-.106-80.743c-32.581-13.503-71.501-32.009-107.452-32.009-43.307,0-79.089,14.266-107.325,42.777-28.257,28.511-42.375,64.675-42.375,108.512,0,34.32,9.772,63.085,29.317,86.318,19.523,23.254,54.372,47.271,104.548,72.073,41.696,20.605,71.14,41.336,88.311,62.173,17.149,20.88,25.734,46.084,25.734,75.656,0,33.26-8.861,58.994-26.54,77.203-.657.678-1.335,1.335-2.014,1.992-10.62,10.239-23.72,17.361-39.28,21.41,13.991-10.281,25.099-24.632,31.076-41.357,3.646-9.9,5.469-20.71,5.745-31.309.042-1.717.064-3.434.021-5.13-.021-11.786-2.099-23.933-5.618-35.21-4.621-15.411-12.507-30.101-22.682-42.523-53.567-67.579-155.126-59.884-217.045-7.907-49.9,41.251-72.158,104.781-63,168.439,10.239,88.565,74.108,168.163,158.582,196.42,53.801,19.121,113.473,15.072,167.103-1.759,76.609-24.06,144.04-80.319,177.851-153.155.212-.445-.297-1.293-.297-1.293,0,0-1.124-.297-1.484.17Z"/>
    <path class="st1" d="M625.315,612.386c-16.344,19.968-34.404,37.987-54.161,53.398-79.937,63.361-209.266,92.804-297.852,33.684-45.597-30.144-77.097-80.849-82.312-135.285-.763-6.614-.848-13.588-.996-20.244.021-33.556,15.199-66.307,40.658-88.226.721-.636,1.463-1.272,2.204-1.887.191-.148.382-.318.572-.466,21.876-18.039,50.642-28.045,79.111-27.027,22.809,1.039,44.558,13.524,58.061,31.945.89,1.229,1.759,2.501,2.586,3.773.933,1.547,2.756,4.727,3.71,6.232.763,1.632,2.268,5.003,3.095,6.593,1.145,3.349,2.692,7.038,3.391,10.493.954,3.37,1.696,7.567,2.141,11.023,2.183,13.8-1.505,28.32-9.857,39.555-6.55,9.179-16.174,16.216-26.752,20.18-15.029,5.702-31.436,5.321-45.109-5.363-8.946-6.847-15.644-17.594-17.912-30.228-.085-.572-1.06-5.024-1.06-5.024,0,0-.254,1.081-.488,2.226-.021.021-.021.042-.021.064-.127,1.484-.191,2.989-.191,4.515,0,35.485,34.595,64.272,77.33,64.441.445,0,.911-.021,1.356-.021h.127c1.335-.042,2.671-.085,4.006-.127,44.897-1.781,83.605-17.7,116.144-47.759,34.574-31.924,51.871-70.61,51.871-116.016,0-32.73-10.832-61.898-32.475-87.526-21.664-25.607-57.298-50.811-106.922-75.634-42.247-21.113-69.699-37.499-82.375-49.116-22.703-20.583-38.008-48.013-34.044-81.57,7.779-65.968,76.355-73.048,102.598-68.278,67.155,12.21,90.494,70.928,90.494,70.928l-.106-80.743c-32.581-13.503-71.501-32.009-107.452-32.009-43.307,0-79.089,14.266-107.325,42.777-28.257,28.511-42.375,64.675-42.375,108.512,0,34.32,9.772,63.085,29.317,86.318,19.523,23.254,54.372,47.271,104.548,72.073,41.696,20.605,71.14,41.336,88.311,62.173,17.149,20.88,25.734,46.084,25.734,75.656,0,33.26-8.861,58.994-26.54,77.203-.657.678-1.335,1.335-2.014,1.992-10.62,10.239-23.72,17.361-39.28,21.41,13.991-10.281,25.099-24.632,31.076-41.357,3.646-9.9,5.469-20.71,5.745-31.309.042-1.717.064-3.434.021-5.13-.021-11.786-2.099-23.933-5.618-35.21-4.621-15.411-12.507-30.101-22.682-42.523-53.567-67.579-155.126-59.884-217.045-7.907-49.9,41.251-72.158,104.781-63,168.439,10.239,88.565,74.108,168.163,158.582,196.42,53.801,19.121,113.473,15.072,167.103-1.759,76.609-24.06,144.04-80.319,177.851-153.155.212-.445-.297-1.293-.297-1.293,0,0-1.124-.297-1.484.17Z"/>
  </g>
  <path class="st0" d="M689.054,493.019c-24.91,32.989-33.053,35.693-72.75,24.164,32.989,24.91,35.694,33.053,24.165,72.75,24.91-32.989,33.053-35.693,72.75-24.164-32.989-24.91-35.694-33.053-24.164-72.75Z"/>
</svg>