<?xml version="1.0" encoding="UTF-8"?>
<svg id="Calque_1" xmlns="http://www.w3.org/2000/svg" xmlns:xlink="http://www.w3.org/1999/xlink" version="1.1" viewBox="0 0 800 800">
  <!-- Generator: Adobe Illustrator 29.7.1, SVG Export Plug-In . SVG Version: 2.1.1 Build 8)  -->
  <defs>
    <style>
      .st0 {
        fill: #bf4289;
      }

      .st1 {
        fill: #cf348c;
      }

      .st2 {
        fill: url(#Dégradé_sans_nom);
      }

      .st3 {
        fill: #ee960d;
      }

      .st4 {
        fill: #be4288;
      }
    </style>
    <linearGradient id="Dégradé_sans_nom" data-name="Dégradé sans nom" x1="424.429" y1="459.057" x2="285.075" y2="224.452" gradientTransform="translate(-125.046 730.724) scale(1 -1)" gradientUnits="userSpaceOnUse">
      <stop offset=".365" stop-color="#ff9200"/>
      <stop offset=".477" stop-color="#ea693c"/>
      <stop offset=".594" stop-color="#d64375"/>
      <stop offset=".651" stop-color="#cf348c"/>
    </linearGradient>
  </defs>
  <g>
    <path class="st1" d="M344.649,469.965c-7.655,9.353-16.115,17.793-25.369,25.011-37.442,29.678-98.019,43.469-139.513,15.777-21.357-14.119-36.112-37.869-38.554-63.367-.357-3.098-.397-6.365-.467-9.482.01-15.718,7.119-31.058,19.044-41.325.338-.298.685-.596,1.033-.884.089-.069.179-.149.268-.218,10.247-8.45,23.721-13.136,37.055-12.659,10.684.487,20.871,6.335,27.196,14.963.417.576.824,1.172,1.211,1.767.437.725,1.291,2.214,1.738,2.919.357.765,1.062,2.343,1.45,3.088.536,1.569,1.261,3.296,1.588,4.915.447,1.579.794,3.544,1.003,5.163,1.023,6.464-.705,13.265-4.617,18.527-3.068,4.299-7.576,7.596-12.531,9.452-7.04,2.671-14.725,2.492-21.129-2.512-4.19-3.207-7.328-8.241-8.39-14.159-.04-.268-.496-2.353-.496-2.353,0,0-.119.506-.228,1.042-.01.01-.01.02-.01.03-.06.695-.089,1.4-.089,2.115,0,16.621,16.204,30.105,36.221,30.184.208,0,.427-.01.635-.01h.06c.625-.02,1.251-.04,1.876-.06,21.03-.834,39.16-8.291,54.401-22.37,16.194-14.953,24.296-33.074,24.296-54.341,0-15.33-5.074-28.993-15.211-40.997-10.147-11.994-26.838-23.8-50.082-35.427-19.788-9.889-32.646-17.564-38.584-23.006-10.634-9.641-17.803-22.489-15.946-38.207,3.644-30.899,35.764-34.215,48.056-31.981,31.455,5.719,42.387,33.222,42.387,33.222l-.05-37.82c-15.261-6.325-33.491-14.993-50.33-14.993-20.285,0-37.045,6.682-50.271,20.037-13.235,13.354-19.848,30.293-19.848,50.827,0,16.075,4.577,29.549,13.732,40.431,9.145,10.892,25.468,22.142,48.97,33.759,19.53,9.651,33.322,19.362,41.364,29.122,8.033,9.78,12.054,21.586,12.054,35.437,0,15.579-4.15,27.632-12.431,36.162-.308.318-.625.625-.943.933-4.974,4.796-11.111,8.132-18.398,10.028,6.553-4.816,11.756-11.538,14.556-19.371,1.708-4.637,2.562-9.701,2.691-14.665.02-.804.03-1.609.01-2.403-.01-5.52-.983-11.21-2.631-16.492-2.164-7.218-5.858-14.099-10.624-19.918-25.091-31.654-72.66-28.049-101.663-3.704-23.373,19.322-33.798,49.079-29.509,78.896,4.796,41.483,34.712,78.767,74.279,92.002,25.2,8.956,53.15,7.06,78.27-.824,35.883-11.269,67.468-37.621,83.304-71.737.099-.208-.139-.606-.139-.606,0,0-.526-.139-.695.08v.002Z"/>
    <path class="st2" d="M344.649,469.965c-7.655,9.353-16.115,17.793-25.369,25.011-37.442,29.678-98.019,43.469-139.513,15.777-21.357-14.119-36.112-37.869-38.554-63.367-.357-3.098-.397-6.365-.467-9.482.01-15.718,7.119-31.058,19.044-41.325.338-.298.685-.596,1.033-.884.089-.069.179-.149.268-.218,10.247-8.45,23.721-13.136,37.055-12.659,10.684.487,20.871,6.335,27.196,14.963.417.576.824,1.172,1.211,1.767.437.725,1.291,2.214,1.738,2.919.357.765,1.062,2.343,1.45,3.088.536,1.569,1.261,3.296,1.588,4.915.447,1.579.794,3.544,1.003,5.163,1.023,6.464-.705,13.265-4.617,18.527-3.068,4.299-7.576,7.596-12.531,9.452-7.04,2.671-14.725,2.492-21.129-2.512-4.19-3.207-7.328-8.241-8.39-14.159-.04-.268-.496-2.353-.496-2.353,0,0-.119.506-.228,1.042-.01.01-.01.02-.01.03-.06.695-.089,1.4-.089,2.115,0,16.621,16.204,30.105,36.221,30.184.208,0,.427-.01.635-.01h.06c.625-.02,1.251-.04,1.876-.06,21.03-.834,39.16-8.291,54.401-22.37,16.194-14.953,24.296-33.074,24.296-54.341,0-15.33-5.074-28.993-15.211-40.997-10.147-11.994-26.838-23.8-50.082-35.427-19.788-9.889-32.646-17.564-38.584-23.006-10.634-9.641-17.803-22.489-15.946-38.207,3.644-30.899,35.764-34.215,48.056-31.981,31.455,5.719,42.387,33.222,42.387,33.222l-.05-37.82c-15.261-6.325-33.491-14.993-50.33-14.993-20.285,0-37.045,6.682-50.271,20.037-13.235,13.354-19.848,30.293-19.848,50.827,0,16.075,4.577,29.549,13.732,40.431,9.145,10.892,25.468,22.142,48.97,33.759,19.53,9.651,33.322,19.362,41.364,29.122,8.033,9.78,12.054,21.586,12.054,35.437,0,15.579-4.15,27.632-12.431,36.162-.308.318-.625.625-.943.933-4.974,4.796-11.111,8.132-18.398,10.028,6.553-4.816,11.756-11.538,14.556-19.371,1.708-4.637,2.562-9.701,2.691-14.665.02-.804.03-1.609.01-2.403-.01-5.52-.983-11.21-2.631-16.492-2.164-7.218-5.858-14.099-10.624-19.918-25.091-31.654-72.66-28.049-101.663-3.704-23.373,19.322-33.798,49.079-29.509,78.896,4.796,41.483,34.712,78.767,74.279,92.002,25.2,8.956,53.15,7.06,78.27-.824,35.883-11.269,67.468-37.621,83.304-71.737.099-.208-.139-.606-.139-.606,0,0-.526-.139-.695.08v.002Z"/>
  </g>
  <path class="st0" d="M257.963,95.48l304.601,133.536c2.841,1.245,4.676,4.053,4.676,7.155h0c0,5.637-5.787,9.418-10.949,7.155L255.581,111.495c-.013-.006-.028-.005-.041.003l-176.709,115.609c-.012.008-.019.021-.019.036v306.41c0,4.184-3.158,7.854-7.334,8.103-4.533.27-8.291-3.323-8.291-7.798V222.902c0-2.637,1.328-5.098,3.535-6.543l183.828-120.263c2.207-1.445,5-1.68,7.412-.615h.001Z"/>
  <path class="st0" d="M736.155,313.654c-1.729,3.955-6.338,5.752-10.293,4.014l-101.545-44.513c-2.841-1.245-4.676-4.053-4.676-7.155h0c0-5.636,5.787-9.418,10.949-7.155l101.541,44.516c3.955,1.729,5.752,6.338,4.023,10.293h.001Z"/>
  <circle class="st0" cx="70.998" cy="556.373" r="7.377"/>
  <path class="st1" d="M615.497,259.382c-15.212-11.487-16.46-15.242-11.143-33.548-11.487,15.213-15.242,16.46-33.548,11.143,15.212,11.487,16.459,15.242,11.143,33.548,11.487-15.213,15.242-16.46,33.548-11.143Z"/>
  <g>
    <path class="st3" d="M336.21,404.123v-74.585h-15.259c-1.953-.08-3.216-.61-3.784-1.587-.732-1.139-1.099-3.174-1.099-6.104,0-4.639,1.383-6.958,4.15-6.958h44.434c4.719,0,7.08,1.263,7.08,3.784,0,7.244-1.953,10.864-5.859,10.864l-13.672-.122,1.099,24.78.122,49.683c0,1.547-.042,2.563-.122,3.052-.326,1.139-1.913,1.709-4.761,1.709-8.221,0-12.329-1.507-12.329-4.517h0Z"/>
    <path class="st3" d="M418.728,351.145c3.254,0,4.883,1.465,4.883,4.395,0,3.988-.244,6.714-.732,8.179s-1.751,2.197-3.784,2.197h-23.926v26.001h28.198c1.953.082,3.296.469,4.028,1.16.732.692,1.099,1.729,1.099,3.112,0,3.988-.366,6.734-1.099,8.24s-2.197,2.258-4.395,2.258h-42.969l-1.953-1.953v-89.844h43.335c3.498.082,5.249,1.385,5.249,3.906-.082,2.197-.204,3.928-.366,5.188-.164,1.263-.672,2.502-1.526,3.723s-2.096,1.831-3.723,1.831h-27.222l1.343,21.606h23.56Z"/>
    <path class="st3" d="M437.036,317.453c0-1.789.427-2.99,1.281-3.601s2.503-.916,4.944-.916c5.859,0,8.829,1.465,8.911,4.395l1.831,36.621.122,37.964h23.682c3.986,0,5.981,1.465,5.981,4.395,0,5.291-.774,8.465-2.319,9.521-.814.57-1.873.854-3.174.854h-39.307l-1.953-1.953v-87.28h.001Z"/>
    <path class="st3" d="M490.137,317.453c0-1.789.427-2.99,1.281-3.601s2.503-.916,4.944-.916c5.859,0,8.829,1.465,8.911,4.395l1.831,36.621.122,37.964h23.682c3.986,0,5.981,1.465,5.981,4.395,0,5.291-.774,8.465-2.319,9.521-.814.57-1.873.854-3.174.854h-39.307l-1.953-1.953v-87.28h0Z"/>
    <path class="st3" d="M574.12,312.814c5.615,0,8.667,1.263,9.155,3.784l8.301,37.476,8.423,49.927c.162.814.244,1.567.244,2.259s-.204,1.261-.61,1.708c-.408.447-1.791.672-4.15.672-7.244,0-11.108-1.547-11.597-4.639l-4.272-25.146h-17.09l-3.784,25.269c-.244,1.709-.55,2.848-.916,3.418-.366.568-.875.895-1.525.977-.652.08-1.709.122-3.174.122h-3.418c-2.85,0-4.639-.164-5.371-.488-1.791-.652-2.808-1.385-3.052-2.197-.082-.406-.122-.772-.122-1.099,0-.324.854-5.695,2.563-16.113,1.709-10.416,3.804-22.827,6.286-37.231,2.481-14.404,4.108-23.844,4.883-28.32.772-4.475,1.2-6.998,1.282-7.568.324-1.871,6.306-2.808,17.944-2.808v-.003ZM570.458,328.806l-5.615,35.278h12.085l-6.47-35.278h0Z"/>
    <path class="st3" d="M615.379,341.989l-6.104-1.099-1.831-6.47,2.808-16.357,3.906-5.127,14.648,3.662-13.428,25.391h0Z"/>
  </g>
  <g>
    <path class="st4" d="M366.133,485.742c0-12.939,1.017-22.867,3.052-29.785,2.033-6.916,5.269-11.759,9.704-14.526,4.435-2.766,10.844-4.15,19.227-4.15s14.789,1.385,19.226,4.15c4.435,2.768,7.648,7.59,9.644,14.466,1.993,6.878,2.991,16.826,2.991,29.846,0,17.822-2.279,30.151-6.836,36.987-4.559,6.836-12.899,10.254-25.024,10.254s-20.489-3.418-25.086-10.254c-4.598-6.836-6.896-19.165-6.896-36.987h-.002ZM386.519,462.977c-.488,3.052-.774,6.146-.854,9.277-.082,3.134-.122,8.443-.122,15.93s.244,13.754.732,18.799c.488,5.047,1.139,8.362,1.953,9.949.812,1.587,1.911,2.38,3.296,2.38,7.16,0,11.841-.732,14.038-2.197.812-.568,1.605-1.505,2.38-2.808.772-1.301,1.322-2.644,1.648-4.028.324-1.383.61-3.418.854-6.104.324-3.498.488-9.784.488-18.859s-.226-16.235-.672-21.484c-.448-5.249-1.099-8.829-1.953-10.742-.854-1.911-1.974-2.869-3.356-2.869-3.256,0-5.881.144-7.874.428-1.995.286-3.765.977-5.31,2.075-1.547,1.099-2.686,2.319-3.418,3.662s-1.343,3.54-1.831,6.592h0Z"/>
    <path class="st4" d="M439.983,528.101v-86.304c0-3.01,2.93-4.517,8.789-4.517,1.221,0,2.176.042,2.868.122.69.082,1.566.47,2.625,1.16,1.057.692,1.993,1.689,2.808,2.99l21.851,51.27-.732-51.147c0-2.93,2.93-4.395,8.789-4.395,2.441,0,4.108.286,5.005.854.895.57,1.383,1.751,1.465,3.54l1.953,36.743v50.049c0,1.385-.042,2.319-.122,2.808-.326,1.139-1.913,1.709-4.761,1.709-5.291,0-8.465-1.507-9.521-4.517l-24.048-50.659.122,50.537c0,1.465-.042,2.441-.122,2.93-.326,1.139-1.913,1.709-4.761,1.709-8.139,0-12.207-1.629-12.207-4.883h-.001Z"/>
    <path class="st4" d="M553.997,516.626c2.033,0,3.052,1.303,3.052,3.906s-.042,4.559-.122,5.859c-.326,2.93-1.629,4.599-3.906,5.005-7.244,1.057-12.615,1.587-16.113,1.587-12.127,0-20.468-3.418-25.024-10.254-4.559-6.836-6.836-19.165-6.836-36.987,0-13.02.996-22.968,2.99-29.846,1.993-6.876,5.208-11.698,9.644-14.466,4.435-2.766,11.066-4.15,19.897-4.15s15.278,1.385,19.349,4.15c.812.57,1.221,1.263,1.221,2.075s-.388,2.341-1.16,4.578c-.774,2.239-1.507,3.826-2.197,4.761-.692.937-1.403,1.403-2.136,1.403s-1.303-.04-1.709-.122c-6.104-1.221-11.374-1.831-15.809-1.831s-7.324,2.441-8.667,7.324-2.014,12.799-2.014,23.743.284,18.575.854,22.888c.568,4.314,1.627,7.324,3.174,9.033,1.545,1.709,4.007,2.563,7.385,2.563s7.202-.202,11.475-.61c4.272-.406,6.489-.61,6.653-.61h-.001Z"/>
    <path class="st4" d="M607.706,475.488c3.254,0,4.883,1.465,4.883,4.395,0,3.988-.244,6.714-.732,8.179s-1.751,2.197-3.784,2.197h-23.926v26.001h28.198c1.953.082,3.296.469,4.028,1.16.732.692,1.099,1.729,1.099,3.112,0,3.988-.366,6.734-1.099,8.24s-2.197,2.258-4.395,2.258h-42.969l-1.953-1.953v-89.844h43.335c3.498.082,5.249,1.385,5.249,3.906-.082,2.197-.204,3.928-.366,5.188-.164,1.263-.672,2.502-1.526,3.723s-2.096,1.831-3.723,1.831h-27.222l1.343,21.606h23.56Z"/>
    <path class="st4" d="M626.015,528.345v-89.111c8.219-1.301,15.461-1.953,21.729-1.953,11.066,0,18.777,2.319,23.132,6.958,4.353,4.639,6.531,11.923,6.531,21.851,0,11.719-2.93,19.735-8.789,24.048-3.826,2.768-7.568,4.477-11.23,5.127-4.721.732-10.092,1.099-16.113,1.099v31.86c0,1.547-.082,2.563-.244,3.052-.244,1.139-1.791,1.709-4.639,1.709-6.918,0-10.376-1.547-10.376-4.639h-.001ZM641.7,479.334c.284.122.528.204.732.244.202.042,1.139.061,2.808.061s3.193-.04,4.578-.122c1.383-.08,2.868-.345,4.455-.793,1.587-.446,2.705-1.16,3.357-2.137,1.465-2.441,2.197-5.817,2.197-10.132s-.652-7.831-1.953-10.559c-1.303-2.726-2.686-4.09-4.15-4.09-5.859,0-9.399.122-10.62.366s-1.831,1.059-1.831,2.441v23.193c0,.896.141,1.404.427,1.526v.002Z"/>
    <path class="st4" d="M699.744,528.467v-74.585h-15.259c-1.953-.08-3.216-.61-3.784-1.587-.732-1.139-1.099-3.174-1.099-6.104,0-4.639,1.383-6.958,4.15-6.958h44.434c4.719,0,7.08,1.263,7.08,3.784,0,7.244-1.953,10.864-5.859,10.864l-13.672-.122,1.099,24.78.122,49.683c0,1.547-.042,2.563-.122,3.052-.326,1.139-1.913,1.709-4.761,1.709-8.221,0-12.329-1.507-12.329-4.517h0Z"/>
  </g>
  <g>
    <path d="M87.407,623.235c-.912.352-1.935.656-3.07.911-1.135.257-2.278.384-3.429.384-.832,0-1.551-.088-2.158-.264-.608-.176-1.119-.456-1.535-.839-.608-.576-1.215-1.815-1.822-3.718-.608-1.901-.912-4.452-.912-7.649,0-2.591.104-4.693.312-6.308.207-1.614.495-2.884.863-3.812.367-.927.759-1.614,1.175-2.062.416-.48,1.063-.799,1.943-.96.879-.159,2.07-.239,3.573-.239.383,0,.935.023,1.654.071.719.048,1.487.113,2.302.192.815.08,1.566.153,2.254.216.687.065,1.191.113,1.511.144l.576-4.221c-.575-.16-1.399-.303-2.47-.432-1.072-.127-2.158-.239-3.261-.336-1.103-.096-2.038-.144-2.806-.144-1.855,0-3.573.241-5.156.72-1.583.48-2.958,1.36-4.125,2.638-1.168,1.28-2.079,3.079-2.734,5.396-.656,2.319-.983,5.316-.983,8.993,0,4.125.528,7.435,1.583,9.929s2.494,4.301,4.317,5.42c1.822,1.118,3.933,1.679,6.331,1.679h0c1.598,0,3.053-.153,4.364-.457,1.311-.304,2.438-.663,3.382-1.079.943-.415,1.926-.927,2.95-1.535l-1.631-3.933c-1.088.512-2.087.943-2.998,1.295Z"/>
    <path d="M121.028,597.552c-1.199-1.263-2.575-2.143-4.125-2.639-1.551-.495-3.205-.743-4.964-.743s-3.422.248-4.988.743c-1.567.496-2.949,1.377-4.149,2.639s-2.135,3.021-2.806,5.275c-.672,2.255-1.007,5.139-1.007,8.657s.335,6.411,1.007,8.682c.672,2.27,1.607,4.045,2.806,5.323,1.199,1.28,2.582,2.175,4.149,2.687,1.566.511,3.229.768,4.988.768h0c1.758.001,3.413-.256,4.964-.767,1.551-.512,2.926-1.408,4.125-2.687,1.199-1.278,2.134-3.052,2.806-5.323s1.007-5.164,1.007-8.682c0-3.549-.336-6.443-1.007-8.681-.672-2.238-1.607-3.989-2.806-5.252ZM119.061,618.344c-.304,1.695-.767,2.982-1.391,3.861-.624.88-1.415,1.463-2.374,1.751-.959.287-2.078.432-3.357.432h-.001c-1.311,0-2.446-.145-3.405-.432-.959-.288-1.75-.871-2.374-1.751-.623-.879-1.079-2.166-1.367-3.861-.288-1.694-.432-3.933-.432-6.714,0-2.813.144-5.076.432-6.787.288-1.71.735-3.005,1.343-3.885.607-.879,1.382-1.479,2.326-1.799.942-.319,2.102-.479,3.477-.479,1.311,0,2.453.16,3.429.479.976.32,1.767.92,2.375,1.799.607.88,1.055,2.175,1.343,3.885.288,1.711.432,3.957.432,6.738,0,2.815-.152,5.069-.456,6.763Z"/>
    <polygon points="153.619 622.181 153.427 622.181 140.813 594.842 134.098 594.842 134.098 628.272 134.099 628.272 138.991 628.272 138.368 600.933 138.559 600.933 151.173 628.272 157.84 628.272 157.84 594.842 152.948 594.842 153.619 622.181"/>
    <path d="M172.252,628.488c1.263.304,2.598.456,4.005.456l.003.003c2.078,0,3.917-.416,5.516-1.247,1.598-.832,2.845-1.992,3.741-3.478.895-1.487,1.343-3.221,1.343-5.204,0-1.631-.256-2.989-.767-4.077-.512-1.086-1.184-1.998-2.015-2.733-.832-.736-1.751-1.351-2.758-1.847-1.008-.495-2.007-.967-2.998-1.415-1.12-.48-2.175-.967-3.166-1.463-.992-.495-1.791-1.102-2.398-1.822-.608-.72-.912-1.639-.912-2.758,0-1.056.16-1.878.48-2.471.319-.591.655-.983,1.007-1.175.319-.192.696-.336,1.127-.432.431-.096,1.014-.144,1.75-.144.991,0,1.99.039,2.998.12s1.926.184,2.758.312c.831.127,1.759.288,2.782.479l.815-4.221c-.928-.256-1.798-.457-2.614-.6-.816-.143-1.726-.279-2.734-.407s-2.039-.192-3.094-.192c-2.334,0-4.277.4-5.827,1.199-1.551.799-2.718,1.879-3.501,3.237-.784,1.359-1.175,2.886-1.175,4.581,0,1.598.247,2.941.743,4.028.496,1.088,1.167,1.984,2.015,2.686.846.704,1.814,1.328,2.901,1.871,1.087.544,2.238,1.071,3.454,1.583,1.055.479,2.03.975,2.926,1.486.894.512,1.614,1.136,2.158,1.871.543.735.815,1.646.815,2.733,0,1.152-.153,2.07-.456,2.758-.305.688-.728,1.223-1.271,1.606-.192.129-.504.257-.936.384-.431.129-1.015.192-1.75.192-1.247,0-2.47-.128-3.669-.384-1.198-.256-2.27-.543-3.213-.863-.944-.319-1.975-.751-3.094-1.295-.32.8-.583,1.471-.791,2.015-.209.544-.473,1.215-.792,2.014,1.151.608,2.222,1.12,3.213,1.535.99.416,2.118.775,3.381,1.079Z"/>
    <polygon points="213.044 623.859 200.609 623.94 200.336 613.404 211.844 613.404 211.844 609.135 200.336 609.135 200.607 599.093 213.044 599.254 213.044 594.842 195.489 594.842 195.489 628.271 213.044 628.271 213.044 623.859"/>
    <polygon points="227.096 609.614 227.24 594.842 222.108 594.842 222.3 612.924 222.108 628.319 227.24 628.271 227.096 609.614"/>
    <polygon points="222.108 628.319 222.108 628.32 222.108 628.319 222.108 628.319"/>
    <polygon points="255.298 623.715 242.99 623.796 243.211 594.842 238.127 594.842 238.127 628.272 255.298 628.272 255.298 623.715"/>
    <rect x="272.084" y="610.43" width="11.415" height="4.269"/>
    <path d="M309.11,594.842l-9.113,33.43h5.227l2.101-8.442h10.483l2.14,8.442h5.181l-9.113-33.43h-6.906ZM312.395,599.4h.339l4.045,16.067h-8.391l4.007-16.067ZM307.813,617.769v-.002s.002.002.002.002h-.002Z"/>
    <path d="M348.079,623.235c-.911.352-1.934.656-3.069.911-1.136.257-2.279.384-3.43.384-.831,0-1.551-.088-2.158-.264s-1.119-.456-1.534-.839c-.608-.576-1.216-1.815-1.823-3.718-.607-1.901-.911-4.452-.911-7.649,0-2.591.104-4.693.312-6.308.208-1.614.496-2.885.863-3.812s.76-1.614,1.176-2.062c.415-.48,1.062-.799,1.942-.96.879-.159,2.069-.239,3.573-.239.383,0,.934.023,1.654.071.72.048,1.488.113,2.303.192.816.08,1.566.153,2.254.216.688.065,1.191.113,1.511.144l.575-4.221c-.575-.16-1.399-.303-2.47-.432-1.072-.127-2.158-.239-3.262-.336-1.103-.096-2.038-.144-2.806-.144-1.854,0-3.573.241-5.156.72-1.582.48-2.957,1.36-4.124,2.638-1.168,1.28-2.079,3.079-2.734,5.396-.655,2.319-.983,5.316-.983,8.993,0,4.125.528,7.435,1.583,9.929,1.055,2.494,2.494,4.301,4.316,5.42,1.823,1.118,3.934,1.679,6.331,1.679h0c1.598,0,3.053-.153,4.365-.457,1.311-.304,2.438-.663,3.381-1.079.943-.415,1.926-.927,2.95-1.535l-1.631-3.933c-1.088.512-2.087.943-2.998,1.295Z"/>
    <path d="M377.959,623.235c-.911.352-1.934.656-3.069.911-1.136.257-2.279.384-3.43.384-.831,0-1.551-.088-2.158-.264s-1.119-.456-1.534-.839c-.608-.576-1.216-1.815-1.823-3.718-.607-1.901-.911-4.452-.911-7.649,0-2.591.104-4.693.312-6.308.208-1.614.496-2.885.863-3.812s.76-1.614,1.176-2.062c.415-.48,1.062-.799,1.942-.96.879-.159,2.069-.239,3.573-.239.383,0,.934.023,1.654.071.72.048,1.488.113,2.303.192.816.08,1.566.153,2.254.216.688.065,1.191.113,1.511.144l.575-4.221c-.575-.16-1.399-.303-2.47-.432-1.072-.127-2.158-.239-3.262-.336-1.103-.096-2.038-.144-2.806-.144-1.854,0-3.573.241-5.156.72-1.582.48-2.957,1.36-4.124,2.638-1.168,1.28-2.079,3.079-2.734,5.396-.655,2.319-.983,5.316-.983,8.993,0,4.125.528,7.435,1.583,9.929,1.055,2.494,2.494,4.301,4.316,5.42,1.823,1.118,3.934,1.679,6.331,1.679h0c1.598,0,3.053-.153,4.365-.457,1.311-.304,2.438-.663,3.381-1.079.943-.415,1.926-.927,2.95-1.535l-1.631-3.933c-1.088.512-2.087.943-2.998,1.295Z"/>
    <path d="M414.386,602.804c-.671-2.238-1.607-3.989-2.806-5.252-1.199-1.263-2.574-2.143-4.125-2.639-1.551-.495-3.205-.743-4.964-.743s-3.422.248-4.988.743c-1.566.496-2.948,1.377-4.148,2.639s-2.135,3.021-2.806,5.275c-.672,2.255-1.008,5.139-1.008,8.657s.336,6.411,1.008,8.682c.671,2.27,1.607,4.045,2.806,5.323,1.199,1.28,2.582,2.175,4.148,2.687,1.566.511,3.229.768,4.988.768h0c1.758.001,3.413-.256,4.964-.767,1.551-.512,2.926-1.408,4.125-2.687,1.2-1.278,2.135-3.052,2.806-5.323.672-2.271,1.008-5.164,1.008-8.682,0-3.549-.336-6.443-1.008-8.681ZM409.613,618.344c-.304,1.695-.767,2.982-1.391,3.861-.623.88-1.415,1.463-2.374,1.751-.959.287-2.079.432-3.357.432h-.002c-1.311,0-2.446-.145-3.405-.432-.959-.288-1.751-.871-2.374-1.751-.624-.879-1.079-2.166-1.367-3.861-.288-1.694-.432-3.933-.432-6.714,0-2.813.144-5.076.432-6.787.288-1.71.736-3.005,1.343-3.885.607-.879,1.383-1.479,2.326-1.799.944-.319,2.103-.479,3.478-.479,1.311,0,2.454.16,3.43.479.975.32,1.766.92,2.374,1.799.607.88,1.055,2.175,1.343,3.885.288,1.711.432,3.957.432,6.738,0,2.815-.152,5.069-.456,6.763Z"/>
    <polygon points="446.856 594.842 439.805 615.801 439.469 615.801 432.515 594.842 425.56 594.842 424.41 628.272 429.446 628.272 429.637 600.166 429.973 600.166 436.784 620.694 442.54 620.694 449.398 600.166 449.734 600.166 449.925 628.272 454.961 628.272 453.81 594.842 446.856 594.842"/>
    <path d="M485.898,611.462c.607-1.551.912-3.509.912-5.876,0-3.805-.84-6.659-2.519-8.562-1.678-1.902-4.037-2.854-7.074-2.854-1.279,0-2.606.033-3.981.096-1.375.064-2.638.144-3.789.24s-2.446.208-3.885.336l.192,17.89-.192,15.54h0s5.084,0,5.084,0v-11.031c.415,0,1.183.04,2.303.12,1.118.08,2.206.119,3.261.119,1.311,0,2.597-.184,3.861-.551,1.262-.368,2.398-.984,3.405-1.847,1.008-.863,1.815-2.07,2.422-3.621ZM481.173,609.903c-.176,1.216-.504,2.063-.983,2.542-.353.32-.824.545-1.415.672-.592.128-1.367.192-2.326.192h0c-1.279,0-2.486-.08-3.621-.24-1.136-.16-1.864-.256-2.183-.288v-14.245c.607-.096,1.407-.191,2.398-.287.99-.096,2.03-.145,3.117-.145.927,0,1.726.072,2.398.216.671.145,1.151.329,1.438.552.224.129.448.377.672.744s.407.975.552,1.822c.144.848.216,2.07.216,3.669,0,1.984-.089,3.581-.264,4.796Z"/>
    <path d="M507.45,619.83l2.14,8.442h5.181l-9.113-33.43h-6.906l-9.113,33.43h5.227l2.101-8.442h10.483ZM497.455,617.769v-.002s.002.002.002.002h-.002ZM502.037,599.4h.339l4.045,16.067h-8.391l4.007-16.067Z"/>
    <path d="M537.049,628.394c1.454-.336,3.013-.823,4.676-1.463v-16.499h-9.88v3.692l4.988.296v9.49c-.48.192-1.103.335-1.871.432-.768.096-1.648.144-2.638.144-1.663,0-2.91-.144-3.741-.432-.832-.288-1.422-.607-1.774-.959-.288-.32-.616-.879-.983-1.679-.368-.799-.695-2.007-.983-3.621s-.432-3.749-.432-6.403c0-3.485.241-6.132.72-7.938s1.007-2.981,1.583-3.525c.447-.448,1.127-.76,2.038-.936s2.151-.264,3.717-.264c1.95,0,3.653.088,5.108.264,1.454.176,2.598.311,3.429.408l.576-4.27c-.576-.127-1.367-.263-2.374-.407-1.008-.143-2.079-.263-3.214-.359-1.135-.097-2.215-.145-3.237-.145-2.047,0-3.909.232-5.588.695-1.679.464-3.126,1.312-4.341,2.542-1.215,1.232-2.151,2.974-2.806,5.229-.655,2.254-.983,5.172-.983,8.753,0,3.613.352,6.571,1.056,8.873.704,2.303,1.655,4.077,2.854,5.324s2.582,2.102,4.148,2.565c1.566.464,3.213.695,4.94.695h-.001c1.887.001,3.557-.166,5.013-.502Z"/>
    <polygon points="556.498 600.933 569.112 628.272 575.778 628.272 575.778 594.842 570.886 594.842 571.557 622.181 571.366 622.181 558.752 594.842 552.037 594.842 552.037 628.272 556.93 628.272 556.306 600.933 556.498 600.933"/>
    <polygon points="586.618 628.271 604.173 628.271 604.173 623.859 591.738 623.94 591.466 613.404 602.974 613.404 602.974 609.135 591.465 609.135 591.736 599.093 604.173 599.254 604.173 594.842 586.618 594.842 586.618 628.271"/>
    <polygon points="638.322 600.166 638.513 628.272 643.549 628.272 642.398 594.842 635.444 594.842 628.393 615.801 628.057 615.801 621.103 594.842 614.148 594.842 612.998 628.272 612.998 628.272 618.034 628.272 618.225 600.166 618.561 600.166 625.372 620.694 631.128 620.694 637.986 600.166 638.322 600.166"/>
    <polygon points="671.704 623.859 659.269 623.94 658.997 613.404 670.505 613.404 670.505 609.135 658.996 609.135 659.267 599.093 671.704 599.254 671.704 594.842 654.149 594.842 654.149 628.271 671.704 628.271 671.704 623.859"/>
    <polygon points="704.509 594.842 699.617 594.842 700.288 622.181 700.097 622.181 687.483 594.842 680.768 594.842 680.768 628.272 685.661 628.272 685.037 600.933 685.229 600.933 697.843 628.272 704.509 628.272 704.509 594.842"/>
    <polygon points="710.505 594.843 710.505 599.255 719.858 599.111 719.762 628.272 719.763 628.272 724.799 628.272 724.702 599.111 734.151 599.255 734.151 594.843 710.505 594.843"/>
    <polygon points="86.002 666.593 72.842 666.593 72.971 652.397 67.887 652.397 67.887 685.827 72.971 685.827 72.842 671.007 86.002 671.007 85.873 685.827 90.957 685.827 90.957 652.397 85.873 652.397 86.002 666.593"/>
    <path d="M105.537,652.397l-9.113,33.43h5.229l2.101-8.442h10.483l2.14,8.442h5.18l-9.113-33.43h-6.907ZM108.824,656.954h.338l4.045,16.067h-8.39c.796-3.193,3.24-12.99,4.007-16.067Z"/>
    <path d="M146.16,669.831c-.736-.528-1.486-.912-2.254-1.151-.349-.109-.663-.195-.959-.267v-.158c.175-.054.369-.118.599-.199.592-.207,1.224-.576,1.895-1.103.672-.528,1.248-1.278,1.727-2.255.48-.974.72-2.261.72-3.86,0-2.334-.448-4.156-1.343-5.468-.895-1.311-2.094-2.246-3.597-2.806-1.503-.56-3.198-.84-5.084-.84-1.12,0-2.286.024-3.501.072-1.216.048-2.358.121-3.43.216-1.072.095-1.951.176-2.638.239-.688.065-1.079.097-1.175.097l.24,17.89-.144,15.348c.064.032.439.089,1.127.168.687.08,1.566.176,2.638.288,1.071.112,2.246.216,3.525.312,1.278.096,2.509.145,3.693.145v-.002c1.343,0,2.63-.161,3.861-.48,1.23-.318,2.358-.863,3.381-1.63,1.023-.767,1.83-1.846,2.422-3.238.591-1.391.887-3.142.887-5.252,0-1.534-.248-2.797-.744-3.789-.496-.99-1.111-1.75-1.846-2.277ZM134.841,655.658c.831-.064,1.791-.096,2.878-.096,1.758,0,3.021.4,3.789,1.199.767.8,1.151,2.223,1.151,4.269,0,1.919-.311,3.301-.935,4.149-.623.847-1.846,1.271-3.669,1.271h0s-5.851.001-5.851.001v-10.576c.163-.017.317-.034.504-.049.591-.048,1.302-.104,2.134-.168ZM142.492,680.911c-.624,1.039-1.927,1.559-3.909,1.559h0c-1.12,0-2.159-.032-3.118-.096-.959-.064-1.743-.136-2.35-.216-.376-.049-.642-.082-.822-.101l-.036-11.674h5.415c1.791,0,3.198.409,4.221,1.224s1.535,2.31,1.535,4.484-.312,3.781-.936,4.82Z"/>
    <polygon points="157.911 652.397 158.103 670.479 157.911 685.874 163.043 685.826 162.899 667.169 163.043 652.397 157.911 652.397"/>
    <polygon points="157.911 685.875 157.911 685.874 157.911 685.874 157.911 685.875"/>
    <polygon points="192.06 656.81 192.06 652.398 168.414 652.398 168.414 656.81 177.767 656.666 177.671 685.827 177.672 685.827 182.708 685.827 182.612 656.666 192.06 656.81"/>
    <path d="M200.214,652.397l-9.113,33.43h5.229l2.101-8.442h10.483l2.14,8.442h5.18l-9.113-33.43h-6.907ZM203.501,656.954h.338l4.045,16.067h-8.39l4.007-16.067Z"/>
    <polygon points="215.753 656.81 225.106 656.666 225.01 685.827 225.011 685.827 230.047 685.827 229.951 656.666 239.399 656.81 239.399 652.398 215.753 652.398 215.753 656.81"/>
    <path d="M278.873,677.095c.927-1.406,1.71-2.749,2.35-4.028.64-1.278,1.295-2.75,1.967-4.413l-4.269-1.295c-.448,1.151-.88,2.19-1.295,3.118-.416.928-.944,1.918-1.583,2.974-.863-1.023-1.791-1.991-2.782-2.902-.991-.911-2.206-1.878-3.645-2.901.672-.384,1.407-.904,2.207-1.559.798-.655,1.494-1.503,2.086-2.542.591-1.039.887-2.279.887-3.718,0-1.342-.312-2.629-.936-3.86-.624-1.23-1.599-2.238-2.926-3.021-1.328-.783-3.062-1.176-5.204-1.176-1.983,0-3.669.369-5.06,1.104-1.392.736-2.439,1.727-3.142,2.974-.703,1.247-1.055,2.638-1.055,4.173,0,1.247.231,2.358.695,3.333.464.975,1.032,1.806,1.703,2.494.672.688,1.327,1.256,1.967,1.703-.672.32-1.4.744-2.183,1.271-.784.527-1.527,1.168-2.23,1.919-.704.751-1.279,1.623-1.727,2.613-.447.993-.671,2.095-.671,3.31,0,1.567.423,3.102,1.271,4.604.847,1.504,2.078,2.742,3.693,3.718,1.614.975,3.556,1.462,5.827,1.462v-.003c2.176,0,4.166-.496,5.973-1.486,1.806-.992,3.477-2.303,5.012-3.933.703,1.215,1.278,2.326,1.726,3.333s.735,1.703.863,2.086l4.893-.191c-.352-1.054-.863-2.381-1.535-3.98-.671-1.599-1.63-3.326-2.877-5.181ZM262.468,656.857c.608-.767,1.631-1.15,3.07-1.15,1.534,0,2.605.399,3.213,1.198.607.8.911,1.743.911,2.83,0,1.472-.424,2.67-1.271,3.598-.847.928-1.815,1.646-2.901,2.158-1.247-.64-2.215-1.407-2.902-2.303-.688-.894-1.031-2.03-1.031-3.405,0-1.183.303-2.159.911-2.926ZM269.59,680.839c-1.455.991-2.997,1.487-4.628,1.487h0c-1.696.001-3.062-.519-4.101-1.558s-1.559-2.327-1.559-3.861c0-1.056.271-2.046.815-2.974.543-.926,1.262-1.742,2.158-2.446.895-.703,1.887-1.247,2.974-1.631,1.374.832,2.765,1.871,4.172,3.118,1.407,1.246,2.734,2.685,3.981,4.316-1.087,1.375-2.358,2.559-3.813,3.549Z"/>
    <polygon points="297.385 656.81 306.738 656.666 306.642 685.827 306.643 685.827 311.679 685.827 311.582 656.666 321.031 656.81 321.031 652.398 297.385 652.398 297.385 656.81"/>
    <path d="M341.94,672.301c2.27-.607,4.005-1.726,5.204-3.357,1.199-1.631,1.799-3.82,1.799-6.571,0-2.59-.456-4.659-1.367-6.211-.911-1.55-2.215-2.669-3.909-3.357-1.695-.687-3.693-1.031-5.995-1.031-.959,0-2.022.024-3.189.072-1.168.048-2.302.105-3.405.168-1.104.065-2.079.136-2.926.216-.848.08-1.415.137-1.703.168l.145,17.698-.24,15.73h5.13v-13.046l5.612.192,6.475,12.854h5.804l-7.435-13.334v-.191ZM334.772,668.681c-1.168-.081-2.278-.184-3.334-.312l.096-12.23c.735-.097,1.696-.192,2.878-.288s2.429-.144,3.741-.144c.831,0,1.583.056,2.254.167.672.113,1.182.265,1.535.456.511.288.919.895,1.224,1.822.303.928.455,2.335.455,4.221,0,2.207-.369,3.83-1.104,4.868-.735,1.04-2.223,1.56-4.46,1.56-1.023,0-2.119-.04-3.285-.12Z"/>
    <polygon points="326.354 685.827 326.354 685.826 326.352 685.826 326.354 685.827"/>
    <path d="M362.853,652.397l-9.113,33.43h5.227l2.101-8.442h10.483l2.14,8.442h5.181l-9.113-33.43h-6.906ZM366.139,656.954h.339l4.045,16.067h-8.391l4.007-16.067ZM361.557,675.323v-.002s.002.002.002.002h-.002Z"/>
    <polygon points="403.956 679.736 403.765 679.736 391.151 652.397 384.436 652.397 384.436 685.827 389.329 685.827 388.705 658.488 388.897 658.488 401.511 685.827 408.177 685.827 408.177 652.397 403.285 652.397 403.956 679.736"/>
    <path d="M433.743,669.763c-.832-.736-1.751-1.351-2.758-1.847-1.008-.495-2.007-.967-2.998-1.415-1.119-.48-2.175-.967-3.166-1.463-.991-.495-1.791-1.102-2.397-1.822-.608-.72-.911-1.639-.911-2.758,0-1.056.159-1.878.479-2.471.319-.591.654-.983,1.007-1.175.319-.192.695-.336,1.127-.432s1.015-.144,1.751-.144c.991,0,1.99.04,2.998.12,1.007.081,1.926.184,2.758.312.831.127,1.758.288,2.781.479l.815-4.221c-.927-.256-1.799-.456-2.614-.6-.814-.143-1.726-.279-2.733-.407-1.007-.128-2.038-.192-3.094-.192-2.334,0-4.276.4-5.827,1.199-1.552.799-2.719,1.879-3.501,3.237-.784,1.359-1.176,2.886-1.176,4.581,0,1.598.247,2.941.744,4.028.495,1.088,1.166,1.984,2.014,2.686.846.704,1.814,1.328,2.902,1.871,1.086.544,2.237,1.071,3.453,1.583,1.055.479,2.03.975,2.926,1.486.894.512,1.614,1.136,2.158,1.871.543.735.815,1.646.815,2.733,0,1.152-.152,2.07-.456,2.758-.304.688-.728,1.223-1.271,1.606-.193.129-.504.257-.936.384-.432.129-1.016.192-1.751.192-1.247,0-2.47-.128-3.669-.384-1.199-.256-2.271-.543-3.213-.863-.945-.319-1.976-.751-3.094-1.295-.32.8-.584,1.471-.792,2.015-.208.544-.472,1.215-.791,2.014,1.152.608,2.222,1.12,3.214,1.535.99.416,2.117.775,3.381,1.079,1.263.304,2.598.456,4.005.456l.002.003c2.078,0,3.918-.415,5.516-1.247,1.598-.832,2.845-1.992,3.741-3.478.895-1.487,1.343-3.221,1.343-5.204,0-1.631-.256-2.989-.768-4.077-.512-1.086-1.183-1.998-2.014-2.733Z"/>
    <polygon points="444.484 652.397 444.676 670.479 444.484 685.874 449.616 685.826 449.472 667.169 449.616 652.397 444.484 652.397"/>
    <polygon points="444.484 685.875 444.484 685.874 444.484 685.874 444.484 685.875"/>
    <polygon points="454.987 656.81 464.34 656.666 464.244 685.827 464.245 685.827 469.281 685.827 469.184 656.666 478.633 656.81 478.633 652.398 454.987 652.398 454.987 656.81"/>
    <polygon points="483.957 685.875 483.957 685.874 483.957 685.874 483.957 685.875"/>
    <polygon points="483.957 652.397 484.149 670.479 483.957 685.874 489.089 685.826 488.945 667.169 489.089 652.397 483.957 652.397"/>
    <path d="M519.76,655.107c-1.199-1.263-2.574-2.143-4.125-2.639-1.551-.495-3.205-.743-4.964-.743s-3.422.248-4.988.743c-1.566.496-2.948,1.377-4.148,2.639s-2.135,3.021-2.806,5.275c-.672,2.255-1.008,5.139-1.008,8.657s.336,6.411,1.008,8.682c.671,2.27,1.607,4.045,2.806,5.323,1.199,1.28,2.582,2.175,4.148,2.687,1.566.511,3.229.768,4.988.768h0c1.758.001,3.413-.256,4.964-.767,1.551-.512,2.926-1.408,4.125-2.687,1.2-1.278,2.135-3.052,2.806-5.323.672-2.271,1.008-5.164,1.008-8.682,0-3.549-.336-6.443-1.008-8.681-.671-2.238-1.607-3.989-2.806-5.252ZM517.793,675.898c-.304,1.695-.767,2.982-1.391,3.861-.623.88-1.415,1.463-2.374,1.751-.959.287-2.079.432-3.357.432h-.002c-1.311,0-2.446-.145-3.405-.432-.959-.288-1.751-.871-2.374-1.751-.624-.879-1.079-2.166-1.367-3.861-.288-1.694-.432-3.933-.432-6.714,0-2.813.144-5.076.432-6.787.288-1.71.736-3.005,1.343-3.885.607-.879,1.383-1.479,2.326-1.799.944-.319,2.103-.479,3.478-.479,1.311,0,2.454.16,3.43.479.975.32,1.766.92,2.374,1.799.607.88,1.055,2.175,1.343,3.885.288,1.711.432,3.957.432,6.738,0,2.815-.152,5.069-.456,6.763Z"/>
    <polygon points="551.678 679.736 551.487 679.736 538.873 652.397 532.158 652.397 532.158 685.827 537.051 685.827 536.427 658.488 536.619 658.488 549.233 685.827 555.899 685.827 555.899 652.397 551.007 652.397 551.678 679.736"/>
    <path d="M581.466,669.763c-.832-.736-1.751-1.351-2.758-1.847-1.008-.495-2.007-.967-2.998-1.415-1.119-.48-2.175-.967-3.166-1.463-.991-.495-1.791-1.102-2.397-1.822-.608-.72-.911-1.639-.911-2.758,0-1.056.159-1.878.479-2.471.319-.591.654-.983,1.007-1.175.319-.192.695-.336,1.127-.432s1.015-.144,1.751-.144c.991,0,1.99.04,2.998.12,1.007.081,1.926.184,2.758.312.831.127,1.758.288,2.781.479l.815-4.221c-.927-.256-1.799-.456-2.614-.6-.814-.143-1.726-.279-2.733-.407s-2.038-.192-3.094-.192c-2.334,0-4.276.4-5.827,1.199-1.552.799-2.719,1.879-3.501,3.237-.784,1.359-1.176,2.886-1.176,4.581,0,1.598.247,2.941.744,4.028.495,1.088,1.166,1.984,2.014,2.686.846.704,1.814,1.328,2.902,1.871,1.086.544,2.237,1.071,3.453,1.583,1.055.479,2.03.975,2.926,1.486.894.512,1.614,1.136,2.158,1.871.543.735.815,1.646.815,2.733,0,1.152-.152,2.07-.456,2.758s-.728,1.223-1.271,1.606c-.193.129-.504.257-.936.384-.432.129-1.016.192-1.751.192-1.247,0-2.47-.128-3.669-.384s-2.271-.543-3.213-.863c-.945-.319-1.976-.751-3.094-1.295-.32.8-.584,1.471-.792,2.015s-.472,1.215-.791,2.014c1.152.608,2.222,1.12,3.214,1.535.99.416,2.117.775,3.381,1.079,1.263.304,2.598.456,4.005.456l.002.003c2.078,0,3.918-.415,5.516-1.247s2.845-1.992,3.741-3.478c.895-1.487,1.343-3.221,1.343-5.204,0-1.631-.256-2.989-.768-4.077-.512-1.086-1.183-1.998-2.014-2.733Z"/>
    <path d="M625.373,656.809c-.88-1.567-2.135-2.806-3.766-3.717s-3.741-1.367-6.331-1.367c-.928,0-1.959.033-3.094.096-1.135.065-2.229.137-3.285.216-1.055.08-1.959.153-2.71.216-.751.065-1.255.097-1.511.097v33.478c.288.031.823.088,1.606.168.784.079,1.679.159,2.687.239,1.007.08,2.022.144,3.046.192,1.022.048,1.933.072,2.733.072h0c2.525,0,4.755-.561,6.69-1.679,1.935-1.119,3.461-2.982,4.581-5.588,1.118-2.605,1.679-6.115,1.679-10.528,0-2.27-.168-4.428-.504-6.475-.336-2.046-.943-3.853-1.822-5.42ZM621.848,675.035c-.257,1.696-.569,2.99-.936,3.886-.369.896-.776,1.551-1.223,1.966-.384.352-.96.64-1.727.863-.767.225-1.919.336-3.454.336h0c-1.215-.001-2.246-.064-3.093-.192-.546-.083-1.102-.147-1.655-.217v-25.203c.603-.069,1.243-.141,1.967-.218,1.055-.111,2.272-.168,3.646-.168s2.38.097,3.021.288c.639.193,1.103.416,1.391.672.863.671,1.486,2.038,1.87,4.101s.576,4.485.576,7.267c0,2.718-.128,4.924-.384,6.618Z"/>
    <polygon points="636.331 685.826 653.886 685.826 653.886 681.414 641.451 681.495 641.179 670.959 652.687 670.959 652.687 666.69 641.178 666.69 641.449 656.648 653.886 656.809 653.886 652.397 636.331 652.397 636.331 685.826"/>
    <polygon points="682.856 681.27 682.568 681.27 675.469 652.397 670.146 652.397 679.21 685.827 679.211 685.827 686.166 685.827 695.278 652.397 689.955 652.397 682.856 681.27"/>
    <polygon points="700.984 685.875 700.984 685.874 700.984 685.874 700.984 685.875"/>
    <polygon points="700.984 652.397 701.176 670.479 700.984 685.874 706.116 685.826 705.972 667.169 706.116 652.397 700.984 652.397"/>
    <polygon points="716.332 685.826 733.887 685.826 733.887 681.414 721.452 681.495 721.18 670.959 732.688 670.959 732.688 666.69 721.179 666.69 721.45 656.648 733.887 656.809 733.887 652.397 716.332 652.397 716.332 685.826"/>
  </g>
</svg>