<?xml version="1.0" encoding="UTF-8"?>
<svg id="Calque_1" xmlns="http://www.w3.org/2000/svg" xmlns:xlink="http://www.w3.org/1999/xlink" version="1.1" viewBox="0 0 800 488.752">
  <!-- Generator: Adobe Illustrator 29.7.1, SVG Export Plug-In . SVG Version: 2.1.1 Build 8)  -->
  <defs>
    <style>
      .st0 {
        fill: #cf348c;
      }

      .st1 {
        fill: #ee960d;
      }

      .st2 {
        fill: url(#Dégradé_sans_nom_49);
      }

      .st3 {
        fill: #be4288;
      }
    </style>
    <linearGradient id="Dégradé_sans_nom_49" data-name="Dégradé sans nom 49" x1="267.319" y1="96.73" x2="113.815" y2="355.157" gradientTransform="translate(0 30.131)" gradientUnits="userSpaceOnUse">
      <stop offset=".365" stop-color="#ff9200"/>
      <stop offset=".477" stop-color="#ea693c"/>
      <stop offset=".594" stop-color="#d64375"/>
      <stop offset=".651" stop-color="#cf348c"/>
    </linearGradient>
  </defs>
  <g>
    <path class="st0" d="M317.179,345.294c-8.433,10.303-17.751,19.599-27.945,27.551-41.244,32.691-107.972,47.883-153.678,17.379-23.526-15.553-39.779-41.715-42.469-69.801-.394-3.412-.437-7.011-.514-10.445.011-17.314,7.842-34.212,20.978-45.521.372-.328.755-.656,1.137-.973.099-.077.197-.164.295-.241,11.287-9.308,26.129-14.47,40.818-13.945,11.768.536,22.99,6.978,29.957,16.482.459.634.908,1.291,1.334,1.947.481.798,1.422,2.439,1.914,3.215.394.842,1.17,2.581,1.597,3.401.591,1.728,1.389,3.631,1.75,5.414.492,1.739.875,3.904,1.105,5.687,1.127,7.12-.776,14.612-5.086,20.409-3.38,4.736-8.345,8.367-13.803,10.412-7.754,2.942-16.22,2.745-23.274-2.767-4.616-3.533-8.072-9.078-9.242-15.596-.044-.295-.547-2.592-.547-2.592,0,0-.131.558-.252,1.148-.011.011-.011.022-.011.033-.066.766-.098,1.542-.098,2.33,0,18.309,17.849,33.162,39.899,33.249.23,0,.47-.011.7-.011h.066c.689-.022,1.378-.044,2.067-.066,23.165-.919,43.136-9.133,59.925-24.641,17.839-16.471,26.763-36.432,26.763-59.859,0-16.887-5.589-31.937-16.756-45.16-11.178-13.212-29.563-26.216-55.167-39.024-21.798-10.894-35.961-19.348-42.502-25.342-11.714-10.62-19.61-24.773-17.565-42.086,4.014-34.037,39.396-37.69,52.936-35.229,34.649,6.3,46.691,36.596,46.691,36.596l-.055-41.66c-16.811-6.967-36.891-16.515-55.441-16.515-22.345,0-40.807,7.361-55.375,22.071-14.579,14.71-21.863,33.369-21.863,55.988,0,17.707,5.042,32.549,15.126,44.536,10.073,11.998,28.054,24.39,53.942,37.186,21.514,10.631,36.705,21.328,45.564,32.079,8.848,10.773,13.278,23.777,13.278,39.035,0,17.161-4.572,30.438-13.693,39.833-.339.35-.689.689-1.039,1.028-5.48,5.283-12.239,8.957-20.267,11.047,7.219-5.305,12.95-12.709,16.034-21.338,1.881-5.108,2.822-10.686,2.964-16.154.022-.886.033-1.772.011-2.647-.011-6.081-1.083-12.348-2.899-18.167-2.384-7.951-6.453-15.531-11.703-21.94-27.638-34.868-80.038-30.898-111.986-4.08-25.746,21.284-37.23,54.062-32.505,86.907,5.283,45.696,38.237,86.765,81.821,101.344,27.759,9.865,58.547,7.776,86.218-.908,39.527-12.414,74.318-41.441,91.763-79.021.109-.23-.153-.667-.153-.667,0,0-.58-.153-.766.088Z"/>
    <path class="st2" d="M317.179,345.294c-8.433,10.303-17.751,19.599-27.945,27.551-41.244,32.691-107.972,47.883-153.678,17.379-23.526-15.553-39.779-41.715-42.469-69.801-.394-3.412-.437-7.011-.514-10.445.011-17.314,7.842-34.212,20.978-45.521.372-.328.755-.656,1.137-.973.099-.077.197-.164.295-.241,11.287-9.308,26.129-14.47,40.818-13.945,11.768.536,22.99,6.978,29.957,16.482.459.634.908,1.291,1.334,1.947.481.798,1.422,2.439,1.914,3.215.394.842,1.17,2.581,1.597,3.401.591,1.728,1.389,3.631,1.75,5.414.492,1.739.875,3.904,1.105,5.687,1.127,7.12-.776,14.612-5.086,20.409-3.38,4.736-8.345,8.367-13.803,10.412-7.754,2.942-16.22,2.745-23.274-2.767-4.616-3.533-8.072-9.078-9.242-15.596-.044-.295-.547-2.592-.547-2.592,0,0-.131.558-.252,1.148-.011.011-.011.022-.011.033-.066.766-.098,1.542-.098,2.33,0,18.309,17.849,33.162,39.899,33.249.23,0,.47-.011.7-.011h.066c.689-.022,1.378-.044,2.067-.066,23.165-.919,43.136-9.133,59.925-24.641,17.839-16.471,26.763-36.432,26.763-59.859,0-16.887-5.589-31.937-16.756-45.16-11.178-13.212-29.563-26.216-55.167-39.024-21.798-10.894-35.961-19.348-42.502-25.342-11.714-10.62-19.61-24.773-17.565-42.086,4.014-34.037,39.396-37.69,52.936-35.229,34.649,6.3,46.691,36.596,46.691,36.596l-.055-41.66c-16.811-6.967-36.891-16.515-55.441-16.515-22.345,0-40.807,7.361-55.375,22.071-14.579,14.71-21.863,33.369-21.863,55.988,0,17.707,5.042,32.549,15.126,44.536,10.073,11.998,28.054,24.39,53.942,37.186,21.514,10.631,36.705,21.328,45.564,32.079,8.848,10.773,13.278,23.777,13.278,39.035,0,17.161-4.572,30.438-13.693,39.833-.339.35-.689.689-1.039,1.028-5.48,5.283-12.239,8.957-20.267,11.047,7.219-5.305,12.95-12.709,16.034-21.338,1.881-5.108,2.822-10.686,2.964-16.154.022-.886.033-1.772.011-2.647-.011-6.081-1.083-12.348-2.899-18.167-2.384-7.951-6.453-15.531-11.703-21.94-27.638-34.868-80.038-30.898-111.986-4.08-25.746,21.284-37.23,54.062-32.505,86.907,5.283,45.696,38.237,86.765,81.821,101.344,27.759,9.865,58.547,7.776,86.218-.908,39.527-12.414,74.318-41.441,91.763-79.021.109-.23-.153-.667-.153-.667,0,0-.58-.153-.766.088Z"/>
  </g>
  <g>
    <path class="st1" d="M307.883,272.764v-82.158h-16.808c-2.151-.088-3.542-.672-4.168-1.748-.807-1.254-1.21-3.496-1.21-6.723,0-5.11,1.523-7.665,4.572-7.665h48.945c5.198,0,7.799,1.391,7.799,4.168,0,7.979-2.151,11.967-6.455,11.967l-15.06-.134,1.21,27.296.134,54.727c0,1.704-.046,2.823-.134,3.361-.359,1.255-2.107,1.883-5.244,1.883-9.056,0-13.581-1.66-13.581-4.976Z"/>
    <path class="st1" d="M398.78,214.407c3.584,0,5.378,1.614,5.378,4.841,0,4.393-.269,7.396-.807,9.009-.538,1.613-1.929,2.42-4.168,2.42h-26.355v28.641h31.062c2.151.091,3.631.517,4.438,1.277.807.763,1.21,1.905,1.21,3.429,0,4.394-.403,7.419-1.21,9.076-.807,1.66-2.421,2.488-4.841,2.488h-47.332l-2.151-2.151v-98.966h47.735c3.854.09,5.782,1.525,5.782,4.303-.091,2.42-.226,4.326-.404,5.715-.181,1.391-.739,2.757-1.681,4.101-.94,1.345-2.309,2.017-4.102,2.017h-29.985l1.479,23.8h25.952Z"/>
    <path class="st1" d="M418.947,177.295c0-1.971.471-3.294,1.412-3.967s2.757-1.008,5.445-1.008c6.455,0,9.726,1.614,9.816,4.841l2.017,40.339.135,41.818h26.086c4.392,0,6.589,1.613,6.589,4.841,0,5.828-.853,9.324-2.555,10.488-.897.628-2.063.941-3.496.941h-43.298l-2.151-2.151v-96.143Z"/>
    <path class="st1" d="M477.439,177.295c0-1.971.471-3.294,1.412-3.967s2.757-1.008,5.445-1.008c6.455,0,9.726,1.614,9.816,4.841l2.017,40.339.135,41.818h26.086c4.392,0,6.589,1.613,6.589,4.841,0,5.828-.853,9.324-2.555,10.488-.897.628-2.063.941-3.496.941h-43.298l-2.151-2.151v-96.143Z"/>
    <path class="st1" d="M569.951,172.185c6.186,0,9.547,1.391,10.085,4.168l9.144,41.28,9.278,54.997c.179.896.269,1.727.269,2.487s-.225,1.389-.672,1.883c-.45.491-1.973.739-4.572.739-7.979,0-12.236-1.704-12.773-5.109l-4.707-27.7h-18.825l-4.168,27.834c-.269,1.883-.605,3.138-1.009,3.766-.403.626-.964.985-1.681,1.075-.719.089-1.882.135-3.496.135h-3.765c-3.139,0-5.109-.181-5.917-.538-1.973-.718-3.093-1.525-3.361-2.42-.09-.448-.135-.852-.135-1.211,0-.356.941-6.273,2.824-17.749,1.883-11.473,4.189-25.145,6.925-41.012,2.733-15.867,4.525-26.265,5.379-31.196.851-4.929,1.321-7.708,1.412-8.337.356-2.061,6.945-3.092,19.766-3.092ZM565.917,189.8l-6.185,38.86h13.312l-7.127-38.86Z"/>
  </g>
  <g>
    <path class="st3" d="M340.844,362.673c0-14.253,1.12-25.188,3.362-32.81,2.24-7.618,5.803-12.952,10.69-16.001,4.885-3.047,11.944-4.571,21.178-4.571s16.291,1.524,21.178,4.571c4.885,3.049,8.426,8.36,10.623,15.935,2.195,7.576,3.295,18.535,3.295,32.876,0,19.632-2.512,33.213-7.531,40.743-5.021,7.53-14.209,11.295-27.565,11.295s-22.569-3.765-27.633-11.295c-5.065-7.53-7.597-21.111-7.597-40.743ZM363.299,337.596c-.538,3.361-.853,6.77-.941,10.219-.09,3.452-.135,9.302-.135,17.548s.269,15.15.807,20.708c.538,5.559,1.254,9.211,2.151,10.959.895,1.748,2.105,2.622,3.63,2.622,7.887,0,13.043-.808,15.463-2.421.895-.626,1.769-1.657,2.622-3.093.851-1.433,1.456-2.912,1.815-4.438.357-1.522.672-3.765.941-6.723.357-3.854.538-10.778.538-20.775s-.248-17.884-.739-23.665c-.494-5.782-1.21-9.726-2.152-11.833-.941-2.105-2.174-3.16-3.698-3.16-3.586,0-6.477.157-8.673.471-2.198.314-4.147,1.075-5.849,2.286-1.704,1.21-2.958,2.555-3.765,4.033-.807,1.479-1.479,3.899-2.017,7.262Z"/>
    <path class="st3" d="M422.193,409.332v-95.066c0-3.315,3.228-4.975,9.682-4.975,1.345,0,2.397.046,3.16.134.761.091,1.725.517,2.891,1.277,1.164.763,2.195,1.861,3.093,3.295l24.069,56.475-.807-56.341c0-3.227,3.227-4.84,9.682-4.84,2.688,0,4.525.314,5.513.94.985.629,1.523,1.929,1.613,3.899l2.151,40.475v55.13c0,1.525-.046,2.556-.134,3.093-.359,1.255-2.107,1.883-5.244,1.883-5.828,0-9.324-1.66-10.488-4.976l-26.49-55.803.135,55.669c0,1.613-.046,2.689-.135,3.227-.359,1.255-2.107,1.883-5.244,1.883-8.965,0-13.446-1.794-13.446-5.379Z"/>
    <path class="st3" d="M547.783,396.692c2.239,0,3.361,1.436,3.361,4.303s-.046,5.021-.135,6.455c-.359,3.227-1.794,5.065-4.303,5.513-7.979,1.164-13.896,1.748-17.749,1.748-13.358,0-22.546-3.765-27.565-11.295-5.021-7.53-7.53-21.111-7.53-40.743,0-14.341,1.097-25.3,3.295-32.876,2.195-7.574,5.735-12.886,10.622-15.935,4.885-3.047,12.19-4.571,21.918-4.571s16.829,1.524,21.312,4.571c.896.628,1.345,1.391,1.345,2.286s-.426,2.578-1.277,5.042c-.853,2.467-1.659,4.215-2.42,5.244-.763,1.032-1.547,1.547-2.354,1.547s-1.435-.044-1.883-.135c-6.723-1.345-12.528-2.017-17.413-2.017s-8.067,2.688-9.547,8.067c-1.479,5.379-2.219,14.098-2.219,26.153s.313,20.462.941,25.213c.626,4.752,1.792,8.067,3.496,9.95,1.702,1.882,4.414,2.823,8.135,2.823s7.934-.223,12.641-.672c4.706-.447,7.147-.673,7.328-.673Z"/>
    <path class="st3" d="M606.946,351.378c3.584,0,5.378,1.613,5.378,4.841,0,4.394-.269,7.396-.807,9.009-.538,1.614-1.929,2.421-4.168,2.421h-26.355v28.641h31.062c2.151.091,3.631.518,4.438,1.277.807.763,1.21,1.906,1.21,3.429,0,4.394-.403,7.419-1.21,9.077-.807,1.659-2.421,2.487-4.841,2.487h-47.332l-2.151-2.151v-98.966h47.735c3.854.09,5.782,1.525,5.782,4.303-.091,2.42-.226,4.326-.404,5.715-.181,1.391-.739,2.756-1.681,4.101-.94,1.345-2.309,2.018-4.101,2.018h-29.986l1.479,23.8h25.952Z"/>
    <path class="st3" d="M627.113,409.601v-98.159c9.054-1.434,17.031-2.151,23.935-2.151,12.19,0,20.685,2.555,25.481,7.664,4.795,5.109,7.193,13.134,7.193,24.069,0,12.908-3.227,21.739-9.681,26.489-4.215,3.049-8.337,4.932-12.371,5.647-5.2.807-11.116,1.21-17.749,1.21v35.096c0,1.704-.091,2.824-.27,3.361-.269,1.255-1.973,1.883-5.109,1.883-7.62,0-11.43-1.704-11.43-5.109ZM644.393,355.613c.312.135.582.226.807.27.223.046,1.254.067,3.093.067s3.517-.045,5.042-.135c1.523-.088,3.16-.38,4.908-.874,1.748-.491,2.979-1.277,3.697-2.354,1.614-2.688,2.421-6.408,2.421-11.16s-.719-8.627-2.151-11.631c-1.436-3.003-2.958-4.505-4.572-4.505-6.454,0-10.354.135-11.698.403s-2.017,1.166-2.017,2.689v25.548c0,.987.155,1.547.471,1.681Z"/>
    <path class="st3" d="M708.329,409.735v-82.157h-16.808c-2.152-.089-3.543-.673-4.169-1.748-.807-1.255-1.21-3.496-1.21-6.724,0-5.109,1.523-7.664,4.571-7.664h48.945c5.198,0,7.799,1.391,7.799,4.168,0,7.979-2.151,11.968-6.454,11.968l-15.06-.135,1.21,27.296.135,54.728c0,1.704-.047,2.824-.135,3.361-.359,1.255-2.107,1.883-5.244,1.883-9.056,0-13.581-1.66-13.581-4.976Z"/>
  </g>
  <path class="st0" d="M635.066,135.543c-14.179,18.778-18.814,20.317-41.411,13.755,18.778,14.179,20.317,18.814,13.755,41.411,14.179-18.778,18.814-20.317,41.41-13.755-18.778-14.179-20.317-18.814-13.755-41.411Z"/>
</svg>